# xmcd
#
# Track frame offsets:
#	150
#	20957
#	52430
#	71025
#	97812
#	129920
#	146482
#	171400
#	179932
#	201617
#
# Disc length: 3002 seconds
#
# Revision: 0
# Processed by: cddbd v1.5.1PL0 Copyright (c) Steve Scherf et al.
# Submitted via: dBpowerAMP V4.0
#
DISCID=a70bb80a
DTITLE=Ana Rita Simonka - Bossa Nova Delhi
DYEAR=1900
DGENRE=
TTITLE0=Mais Filhos de Gandhi
TTITLE1=Morena Bengali de Cravo e Canela
TTITLE2=Vento Louco
TTITLE3=Bebês de Calcutá
TTITLE4=Lamento de Chuva
TTITLE5=Kedar em Águas
TTITLE6=Marinheiro Sem Par
TTITLE7=Aboio em Raag
TTITLE8=Vaca Sagrada
TTITLE9=Viagem de Vida e de Morte
EXTD=
EXTT0=
EXTT1=
EXTT2=
EXTT3=
EXTT4=
EXTT5=
EXTT6=
EXTT7=
EXTT8=
EXTT9=
PLAYORDER=
